<svg xmlns="http://www.w3.org/2000/svg" viewBox="0 0 400 500" width="400" height="500">
  <rect width="400" height="500" fill="white"/>
  <!-- Sky -->
  <rect class="region" data-name="cielo" x="0" y="0" width="400" height="340" fill="white" stroke="#111" stroke-width="1.5"/>
  <!-- Left cloud base -->
  <path class="region" data-name="nube-izq" d="M0,220 Q18,195 38,200 Q42,178 65,183 Q72,162 92,170 Q102,155 118,168 Q132,160 138,180 Q155,175 158,200 Q170,203 165,225 Q0,230 0,220Z" fill="white" stroke="#111" stroke-width="2.5"/>
  <!-- Right cloud base -->
  <path class="region" data-name="nube-der" d="M400,220 Q382,195 362,200 Q358,178 335,183 Q328,162 308,170 Q298,155 282,168 Q268,160 262,180 Q245,175 242,200 Q230,203 235,225 Q400,230 400,220Z" fill="white" stroke="#111" stroke-width="2.5"/>
  <!-- Rainbow arches - 7 bands -->
  <path class="region" data-name="arco-rojo" d="M15,280 Q200,55 385,280 Q378,284 370,280 Q200,68 30,280Z" fill="white" stroke="#111" stroke-width="1.8"/>
  <path class="region" data-name="arco-naranja" d="M30,280 Q200,68 370,280 Q362,284 354,280 Q200,80 46,280Z" fill="white" stroke="#111" stroke-width="1.8"/>
  <path class="region" data-name="arco-amarillo" d="M46,280 Q200,80 354,280 Q346,284 338,280 Q200,92 62,280Z" fill="white" stroke="#111" stroke-width="1.8"/>
  <path class="region" data-name="arco-verde" d="M62,280 Q200,92 338,280 Q330,284 322,280 Q200,104 78,280Z" fill="white" stroke="#111" stroke-width="1.8"/>
  <path class="region" data-name="arco-celeste" d="M78,280 Q200,104 322,280 Q314,284 306,280 Q200,116 94,280Z" fill="white" stroke="#111" stroke-width="1.8"/>
  <path class="region" data-name="arco-azul" d="M94,280 Q200,116 306,280 Q298,284 290,280 Q200,128 110,280Z" fill="white" stroke="#111" stroke-width="1.8"/>
  <path class="region" data-name="arco-violeta" d="M110,280 Q200,128 290,280 Q282,284 274,280 Q200,140 126,280Z" fill="white" stroke="#111" stroke-width="1.8"/>
  <!-- Ground -->
  <rect class="region" data-name="pasto" x="0" y="380" width="400" height="120" fill="white" stroke="#111" stroke-width="2"/>
  <!-- Puddle/pond -->
  <ellipse class="region" data-name="charco" cx="200" cy="420" rx="70" ry="28" fill="white" stroke="#111" stroke-width="2"/>
  <!-- Rainbow reflection in puddle (simplified) -->
  <path d="M148,420 Q200,408 252,420" fill="none" stroke="#111" stroke-width="1.2"/>
  <path d="M155,424 Q200,414 245,424" fill="none" stroke="#111" stroke-width="1.2"/>
  <!-- Grass tufts -->
  <path d="M50,382 Q55,370 58,382" fill="none" stroke="#111" stroke-width="1.5"/>
  <path d="M58,382 Q62,368 66,382" fill="none" stroke="#111" stroke-width="1.5"/>
  <path d="M320,382 Q325,370 328,382" fill="none" stroke="#111" stroke-width="1.5"/>
  <path d="M328,382 Q332,368 336,382" fill="none" stroke="#111" stroke-width="1.5"/>
  <!-- Sun peeking from left cloud -->
  <path class="region" data-name="sol-asomando" d="M0,175 Q0,140 28,135 Q55,130 65,160 Q42,155 18,165 Q8,170 0,175Z" fill="white" stroke="#111" stroke-width="2"/>
  <!-- Birds -->
  <path d="M180,145 Q188,138 196,145" fill="none" stroke="#111" stroke-width="2"/>
  <path d="M208,132 Q217,125 225,132" fill="none" stroke="#111" stroke-width="2"/>
  <path d="M152,160 Q159,154 166,160" fill="none" stroke="#111" stroke-width="2"/>
  <!-- Butterfly left -->
  <path class="region" data-name="mariposa-ala-sup-izq" d="M55,340 Q42,322 50,308 Q62,304 68,322Z" fill="white" stroke="#111" stroke-width="1.8"/>
  <path class="region" data-name="mariposa-ala-inf-izq" d="M55,344 Q40,350 44,365 Q55,368 62,352Z" fill="white" stroke="#111" stroke-width="1.8"/>
  <path class="region" data-name="mariposa-ala-sup-der" d="M65,340 Q78,322 70,308 Q58,304 52,322Z" fill="white" stroke="#111" stroke-width="1.8"/>
  <path class="region" data-name="mariposa-ala-inf-der" d="M65,344 Q80,350 76,365 Q65,368 58,352Z" fill="white" stroke="#111" stroke-width="1.8"/>
  <ellipse cx="60" cy="342" rx="4" ry="10" fill="white" stroke="#111" stroke-width="1.5"/>
  <!-- Butterfly right -->
  <path class="region" data-name="mariposa2-ala-sl" d="M325,345 Q312,327 320,313 Q332,309 338,327Z" fill="white" stroke="#111" stroke-width="1.8"/>
  <path class="region" data-name="mariposa2-ala-il" d="M325,349 Q310,355 314,370 Q325,373 332,357Z" fill="white" stroke="#111" stroke-width="1.8"/>
  <path class="region" data-name="mariposa2-ala-sr" d="M335,345 Q348,327 340,313 Q328,309 322,327Z" fill="white" stroke="#111" stroke-width="1.8"/>
  <path class="region" data-name="mariposa2-ala-ir" d="M335,349 Q350,355 346,370 Q335,373 328,357Z" fill="white" stroke="#111" stroke-width="1.8"/>
  <ellipse cx="330" cy="347" rx="4" ry="10" fill="white" stroke="#111" stroke-width="1.5"/>
  <!-- Star sparkles -->
  <path d="M200,168 L202,175 L209,175 L203,179 L205,186 L200,182 L195,186 L197,179 L191,175 L198,175Z" fill="white" stroke="#111" stroke-width="1.2"/>
  <!-- Title -->
  <text x="200" y="492" text-anchor="middle" font-family="Arial" font-size="14" font-weight="bold" fill="#111">🌈 Arcoíris 🌈</text>
</svg>
