<svg xmlns="http://www.w3.org/2000/svg" viewBox="0 0 400 500" width="400" height="500">
  <rect width="400" height="500" fill="white"/>
  <!-- Sky -->
  <rect class="region" data-name="cielo" x="0" y="0" width="400" height="310" fill="white" stroke="#111" stroke-width="1.5"/>
  <!-- Sun -->
  <circle class="region" data-name="sol" cx="60" cy="55" r="32" fill="white" stroke="#111" stroke-width="2"/>
  <line x1="60" y1="12" x2="60" y2="2" stroke="#111" stroke-width="2"/>
  <line x1="60" y1="98" x2="60" y2="108" stroke="#111" stroke-width="2"/>
  <line x1="17" y1="55" x2="7" y2="55" stroke="#111" stroke-width="2"/>
  <line x1="103" y1="55" x2="113" y2="55" stroke="#111" stroke-width="2"/>
  <line x1="29" y1="24" x2="22" y2="17" stroke="#111" stroke-width="2"/>
  <line x1="91" y1="86" x2="98" y2="93" stroke="#111" stroke-width="2"/>
  <line x1="91" y1="24" x2="98" y2="17" stroke="#111" stroke-width="2"/>
  <line x1="29" y1="86" x2="22" y2="93" stroke="#111" stroke-width="2"/>
  <!-- Hills -->
  <path class="region" data-name="colina-izq" d="M0,310 Q100,200 200,310Z" fill="white" stroke="#111" stroke-width="2"/>
  <path class="region" data-name="colina-der" d="M200,310 Q300,200 400,310Z" fill="white" stroke="#111" stroke-width="2"/>
  <!-- Ground -->
  <rect class="region" data-name="pasto" x="0" y="390" width="400" height="110" fill="white" stroke="#111" stroke-width="2"/>
  <!-- Fence posts -->
  <rect x="20" y="370" width="8" height="35" fill="white" stroke="#111" stroke-width="1.5"/>
  <rect x="55" y="370" width="8" height="35" fill="white" stroke="#111" stroke-width="1.5"/>
  <line x1="20" y1="378" x2="63" y2="378" stroke="#111" stroke-width="1.5"/>
  <line x1="20" y1="390" x2="63" y2="390" stroke="#111" stroke-width="1.5"/>
  <rect x="330" y="370" width="8" height="35" fill="white" stroke="#111" stroke-width="1.5"/>
  <rect x="365" y="370" width="8" height="35" fill="white" stroke="#111" stroke-width="1.5"/>
  <line x1="330" y1="378" x2="373" y2="378" stroke="#111" stroke-width="1.5"/>
  <line x1="330" y1="390" x2="373" y2="390" stroke="#111" stroke-width="1.5"/>
  <!-- Horse body -->
  <ellipse class="region" data-name="cuerpo" cx="200" cy="320" rx="105" ry="70" fill="white" stroke="#111" stroke-width="2.5"/>
  <!-- Neck -->
  <path class="region" data-name="cuello" d="M133,270 Q140,235 165,220 Q185,215 190,240 Q175,250 155,275Z" fill="white" stroke="#111" stroke-width="2.5"/>
  <!-- Head -->
  <ellipse class="region" data-name="cabeza" cx="162" cy="205" rx="42" ry="36" fill="white" stroke="#111" stroke-width="2.5"/>
  <!-- Snout -->
  <ellipse class="region" data-name="hocico" cx="130" cy="215" rx="25" ry="18" fill="white" stroke="#111" stroke-width="2"/>
  <!-- Nostril -->
  <ellipse cx="120" cy="218" rx="5" ry="4" fill="#ddd" stroke="#111" stroke-width="1.5"/>
  <ellipse cx="134" cy="220" rx="5" ry="4" fill="#ddd" stroke="#111" stroke-width="1.5"/>
  <!-- Mouth -->
  <path d="M114,224 Q122,230 132,226" fill="none" stroke="#111" stroke-width="1.5"/>
  <!-- Eye -->
  <ellipse class="region" data-name="ojo" cx="170" cy="198" rx="11" ry="12" fill="white" stroke="#111" stroke-width="2"/>
  <ellipse cx="170" cy="199" rx="6" ry="7" fill="#111"/>
  <ellipse cx="167" cy="196" rx="2" ry="2" fill="white"/>
  <!-- Ear -->
  <path class="region" data-name="oreja" d="M178,175 L172,152 L192,168Z" fill="white" stroke="#111" stroke-width="2"/>
  <!-- Mane strands -->
  <path class="region" data-name="crin-1" d="M178,175 Q200,168 205,190 Q195,188 185,183Z" fill="white" stroke="#111" stroke-width="1.8"/>
  <path class="region" data-name="crin-2" d="M175,188 Q200,182 202,205 Q192,202 180,197Z" fill="white" stroke="#111" stroke-width="1.8"/>
  <path class="region" data-name="crin-3" d="M172,202 Q197,198 196,222 Q186,218 174,213Z" fill="white" stroke="#111" stroke-width="1.8"/>
  <path class="region" data-name="crin-4" d="M168,218 Q192,216 188,240 Q178,235 168,228Z" fill="white" stroke="#111" stroke-width="1.8"/>
  <!-- Legs front -->
  <rect class="region" data-name="pata-ant-izq" x="118" y="370" width="30" height="68" rx="8" fill="white" stroke="#111" stroke-width="2"/>
  <rect class="region" data-name="pata-ant-der" x="160" y="370" width="30" height="68" rx="8" fill="white" stroke="#111" stroke-width="2"/>
  <!-- Legs back -->
  <rect class="region" data-name="pata-tras-izq" x="218" y="375" width="30" height="63" rx="8" fill="white" stroke="#111" stroke-width="2"/>
  <rect class="region" data-name="pata-tras-der" x="258" y="375" width="30" height="63" rx="8" fill="white" stroke="#111" stroke-width="2"/>
  <!-- Hooves -->
  <ellipse class="region" data-name="casco1" cx="133" cy="440" rx="18" ry="9" fill="white" stroke="#111" stroke-width="2"/>
  <ellipse class="region" data-name="casco2" cx="175" cy="440" rx="18" ry="9" fill="white" stroke="#111" stroke-width="2"/>
  <ellipse class="region" data-name="casco3" cx="233" cy="440" rx="18" ry="9" fill="white" stroke="#111" stroke-width="2"/>
  <ellipse class="region" data-name="casco4" cx="273" cy="440" rx="18" ry="9" fill="white" stroke="#111" stroke-width="2"/>
  <!-- Tail -->
  <path class="region" data-name="cola-1" d="M305,300 Q340,285 342,315 Q328,325 305,318Z" fill="white" stroke="#111" stroke-width="2"/>
  <path class="region" data-name="cola-2" d="M307,316 Q345,308 346,348 Q332,352 308,335Z" fill="white" stroke="#111" stroke-width="2"/>
  <path class="region" data-name="cola-3" d="M308,338 Q342,342 338,378 Q324,380 310,358Z" fill="white" stroke="#111" stroke-width="2"/>
  <!-- Title -->
  <text x="200" y="492" text-anchor="middle" font-family="Arial" font-size="14" font-weight="bold" fill="#111">🐴 Caballo 🐴</text>
</svg>
