<svg xmlns="http://www.w3.org/2000/svg" viewBox="0 0 400 500" width="400" height="500">
  <rect width="400" height="500" fill="white"/>
  <!-- Sky -->
  <rect class="region" data-name="cielo" x="0" y="0" width="400" height="320" fill="white" stroke="#111" stroke-width="1.5"/>
  <!-- Stars -->
  <circle cx="40" cy="30" r="2" fill="#111"/>
  <circle cx="80" cy="15" r="2" fill="#111"/>
  <circle cx="130" cy="25" r="2" fill="#111"/>
  <circle cx="270" cy="20" r="2" fill="#111"/>
  <circle cx="320" cy="10" r="2" fill="#111"/>
  <circle cx="370" cy="30" r="2" fill="#111"/>
  <!-- Moon -->
  <path class="region" data-name="luna" d="M60,55 Q85,35 95,65 Q75,85 52,75 Q57,65 60,55Z" fill="white" stroke="#111" stroke-width="2"/>
  <!-- Ground/moat area -->
  <rect class="region" data-name="foso" x="0" y="400" width="400" height="40" fill="white" stroke="#111" stroke-width="2"/>
  <rect class="region" data-name="tierra" x="0" y="440" width="400" height="60" fill="white" stroke="#111" stroke-width="2"/>
  <!-- Drawbridge -->
  <rect class="region" data-name="puente" x="162" y="370" width="76" height="35" rx="2" fill="white" stroke="#111" stroke-width="2"/>
  <line x1="175" y1="370" x2="175" y2="405" stroke="#111" stroke-width="1.5"/>
  <line x1="190" y1="370" x2="190" y2="405" stroke="#111" stroke-width="1.5"/>
  <line x1="210" y1="370" x2="210" y2="405" stroke="#111" stroke-width="1.5"/>
  <line x1="225" y1="370" x2="225" y2="405" stroke="#111" stroke-width="1.5"/>
  <!-- Main wall -->
  <rect class="region" data-name="muro-principal" x="80" y="290" width="240" height="120" fill="white" stroke="#111" stroke-width="2.5"/>
  <!-- Wall windows -->
  <rect class="region" data-name="ventana-muro-izq" x="105" y="315" width="30" height="40" rx="15" fill="white" stroke="#111" stroke-width="2"/>
  <rect class="region" data-name="ventana-muro-der" x="265" y="315" width="30" height="40" rx="15" fill="white" stroke="#111" stroke-width="2"/>
  <!-- Gate arch -->
  <path class="region" data-name="arco-puerta" d="M162,405 L162,355 Q200,330 238,355 L238,405Z" fill="white" stroke="#111" stroke-width="2.5"/>
  <!-- Gate door -->
  <path class="region" data-name="puerta" d="M172,405 L172,365 Q200,348 228,365 L228,405Z" fill="white" stroke="#111" stroke-width="2"/>
  <!-- Door bars -->
  <line x1="193" y1="365" x2="193" y2="405" stroke="#111" stroke-width="1.5"/>
  <line x1="207" y1="365" x2="207" y2="405" stroke="#111" stroke-width="1.5"/>
  <line x1="172" y1="378" x2="228" y2="378" stroke="#111" stroke-width="1.5"/>
  <line x1="172" y1="392" x2="228" y2="392" stroke="#111" stroke-width="1.5"/>
  <!-- Left tower -->
  <rect class="region" data-name="torre-izq-cuerpo" x="55" y="220" width="80" height="185" fill="white" stroke="#111" stroke-width="2.5"/>
  <!-- Left tower battlements -->
  <rect class="region" data-name="torr-izq-alm1" x="55" y="200" width="18" height="28" rx="2" fill="white" stroke="#111" stroke-width="2"/>
  <rect class="region" data-name="torr-izq-alm2" x="82" y="200" width="18" height="28" rx="2" fill="white" stroke="#111" stroke-width="2"/>
  <rect class="region" data-name="torr-izq-alm3" x="109" y="200" width="18" height="28" rx="2" fill="white" stroke="#111" stroke-width="2"/>
  <!-- Left tower window -->
  <rect class="region" data-name="ventana-torr-izq" x="78" y="250" width="34" height="50" rx="17" fill="white" stroke="#111" stroke-width="2"/>
  <!-- Left turret top -->
  <path class="region" data-name="techo-izq" d="M55,220 L95,165 L135,220Z" fill="white" stroke="#111" stroke-width="2.5"/>
  <circle class="region" data-name="bandera-izq" cx="95" cy="162" r="6" fill="white" stroke="#111" stroke-width="1.5"/>
  <line x1="95" y1="156" x2="95" y2="130" stroke="#111" stroke-width="2"/>
  <path class="region" data-name="bandera-izq-flag" d="M95,130 L118,138 L95,146Z" fill="white" stroke="#111" stroke-width="1.5"/>
  <!-- Right tower -->
  <rect class="region" data-name="torre-der-cuerpo" x="265" y="220" width="80" height="185" fill="white" stroke="#111" stroke-width="2.5"/>
  <!-- Right tower battlements -->
  <rect class="region" data-name="torr-der-alm1" x="265" y="200" width="18" height="28" rx="2" fill="white" stroke="#111" stroke-width="2"/>
  <rect class="region" data-name="torr-der-alm2" x="292" y="200" width="18" height="28" rx="2" fill="white" stroke="#111" stroke-width="2"/>
  <rect class="region" data-name="torr-der-alm3" x="319" y="200" width="18" height="28" rx="2" fill="white" stroke="#111" stroke-width="2"/>
  <!-- Right tower window -->
  <rect class="region" data-name="ventana-torr-der" x="288" y="250" width="34" height="50" rx="17" fill="white" stroke="#111" stroke-width="2"/>
  <!-- Right turret top -->
  <path class="region" data-name="techo-der" d="M265,220 L305,165 L345,220Z" fill="white" stroke="#111" stroke-width="2.5"/>
  <circle cx="305" cy="162" r="6" fill="white" stroke="#111" stroke-width="1.5"/>
  <line x1="305" y1="156" x2="305" y2="130" stroke="#111" stroke-width="2"/>
  <path class="region" data-name="bandera-der-flag" d="M305,130 L328,138 L305,146Z" fill="white" stroke="#111" stroke-width="1.5"/>
  <!-- Center tower -->
  <rect class="region" data-name="torre-centro-cuerpo" x="148" y="175" width="104" height="125" fill="white" stroke="#111" stroke-width="2.5"/>
  <!-- Center battlements -->
  <rect class="region" data-name="torr-cen-alm1" x="148" y="155" width="20" height="28" rx="2" fill="white" stroke="#111" stroke-width="2"/>
  <rect class="region" data-name="torr-cen-alm2" x="178" y="155" width="20" height="28" rx="2" fill="white" stroke="#111" stroke-width="2"/>
  <rect class="region" data-name="torr-cen-alm3" x="208" y="155" width="20" height="28" rx="2" fill="white" stroke="#111" stroke-width="2"/>
  <rect class="region" data-name="torr-cen-alm4" x="232" y="155" width="20" height="28" rx="2" fill="white" stroke="#111" stroke-width="2"/>
  <!-- Center tower tall spire -->
  <path class="region" data-name="techo-centro" d="M148,175 L200,100 L252,175Z" fill="white" stroke="#111" stroke-width="2.5"/>
  <line x1="200" y1="98" x2="200" y2="65" stroke="#111" stroke-width="2"/>
  <path class="region" data-name="bandera-centro" d="M200,65 L228,75 L200,85Z" fill="white" stroke="#111" stroke-width="2"/>
  <!-- Center window -->
  <rect class="region" data-name="ventana-centro" x="180" y="200" width="40" height="55" rx="20" fill="white" stroke="#111" stroke-width="2"/>
  <!-- Title -->
  <text x="200" y="492" text-anchor="middle" font-family="Arial" font-size="14" font-weight="bold" fill="#111">🏰 Castillo 🏰</text>
</svg>
