<svg xmlns="http://www.w3.org/2000/svg" viewBox="0 0 400 500" width="400" height="500">
  <rect width="400" height="500" fill="white"/>
  <!-- Sky/cave background -->
  <rect class="region" data-name="fondo" x="0" y="0" width="400" height="420" fill="white" stroke="#111" stroke-width="1.5"/>
  <!-- Mountains -->
  <path class="region" data-name="montana-izq" d="M0,300 L80,160 L160,300Z" fill="white" stroke="#111" stroke-width="2"/>
  <path class="region" data-name="montana-der" d="M240,300 L320,140 L400,300Z" fill="white" stroke="#111" stroke-width="2"/>
  <!-- Ground -->
  <rect class="region" data-name="suelo" x="0" y="400" width="400" height="100" fill="white" stroke="#111" stroke-width="2"/>
  <!-- Fire breath -->
  <path class="region" data-name="fuego-ext" d="M298,230 Q340,200 370,215 Q360,235 340,238 Q360,245 365,265 Q345,268 325,255 Q340,275 330,290 Q310,285 305,265 Q310,280 295,285 Q285,268 295,250 Q280,262 272,255 Q275,238 290,235Z" fill="white" stroke="#111" stroke-width="2"/>
  <path class="region" data-name="fuego-int" d="M300,238 Q330,220 352,232 Q345,245 330,247 Q345,252 348,265 Q335,267 322,258 Q332,270 325,280 Q312,276 308,262Z" fill="white" stroke="#111" stroke-width="1.5"/>
  <!-- Body/belly scales row -->
  <ellipse class="region" data-name="panza" cx="200" cy="330" rx="85" ry="65" fill="white" stroke="#111" stroke-width="2.5"/>
  <!-- Belly scales -->
  <ellipse class="region" data-name="escama-p1" cx="200" cy="295" rx="22" ry="14" fill="white" stroke="#111" stroke-width="1.5"/>
  <ellipse class="region" data-name="escama-p2" cx="200" cy="322" rx="24" ry="15" fill="white" stroke="#111" stroke-width="1.5"/>
  <ellipse class="region" data-name="escama-p3" cx="200" cy="350" rx="24" ry="15" fill="white" stroke="#111" stroke-width="1.5"/>
  <ellipse class="region" data-name="escama-p4" cx="200" cy="376" rx="22" ry="13" fill="white" stroke="#111" stroke-width="1.5"/>
  <!-- Back/top body -->
  <path class="region" data-name="espalda" d="M145,295 Q155,240 175,215 Q200,200 225,215 Q245,240 255,295 Q230,280 200,278 Q170,280 145,295Z" fill="white" stroke="#111" stroke-width="2.5"/>
  <!-- Dorsal spines -->
  <path class="region" data-name="pua1" d="M175,215 L165,175 L185,208Z" fill="white" stroke="#111" stroke-width="2"/>
  <path class="region" data-name="pua2" d="M192,205 L185,162 L205,200Z" fill="white" stroke="#111" stroke-width="2"/>
  <path class="region" data-name="pua3" d="M210,205 L210,158 L222,200Z" fill="white" stroke="#111" stroke-width="2"/>
  <path class="region" data-name="pua4" d="M224,210 L232,168 L238,207Z" fill="white" stroke="#111" stroke-width="2"/>
  <!-- Neck -->
  <path class="region" data-name="cuello" d="M185,215 Q200,195 215,215 Q220,240 215,265 Q200,260 185,265 Q180,240 185,215Z" fill="white" stroke="#111" stroke-width="2.5"/>
  <!-- Head -->
  <ellipse class="region" data-name="cabeza" cx="200" cy="185" rx="52" ry="42" fill="white" stroke="#111" stroke-width="2.5"/>
  <!-- Snout -->
  <path class="region" data-name="hocico" d="M258,180 Q288,175 295,195 Q288,212 258,208 Q268,198 258,180Z" fill="white" stroke="#111" stroke-width="2.5"/>
  <!-- Nostril fire -->
  <ellipse class="region" data-name="fosa-nasal" cx="288" cy="195" rx="8" ry="6" fill="white" stroke="#111" stroke-width="1.8"/>
  <!-- Teeth -->
  <path class="region" data-name="diente1" d="M262,208 L256,225 L270,218Z" fill="white" stroke="#111" stroke-width="1.8"/>
  <path class="region" data-name="diente2" d="M278,210 L274,228 L286,220Z" fill="white" stroke="#111" stroke-width="1.8"/>
  <!-- Eye -->
  <ellipse class="region" data-name="ojo" cx="242" cy="175" rx="16" ry="16" fill="white" stroke="#111" stroke-width="2.5"/>
  <ellipse cx="242" cy="175" rx="10" ry="10" fill="#111"/>
  <ellipse cx="237" cy="170" rx="3.5" ry="3.5" fill="white"/>
  <!-- Eye ridge -->
  <path d="M228,165 Q242,158 256,165" fill="none" stroke="#111" stroke-width="2.5"/>
  <!-- Horns -->
  <path class="region" data-name="cuerno-izq" d="M175,155 L162,118 L185,148Z" fill="white" stroke="#111" stroke-width="2"/>
  <path class="region" data-name="cuerno-der" d="M220,152 L225,115 L238,148Z" fill="white" stroke="#111" stroke-width="2"/>
  <!-- Ear frills -->
  <path class="region" data-name="aleta-izq" d="M155,172 Q132,155 130,178 Q135,195 158,190Z" fill="white" stroke="#111" stroke-width="1.8"/>
  <!-- Wings -->
  <path class="region" data-name="ala-izq-membrana" d="M148,295 Q90,240 60,200 Q80,190 100,210 Q115,190 128,215 Q142,195 152,225 Q158,205 162,235 L148,295Z" fill="white" stroke="#111" stroke-width="2"/>
  <path class="region" data-name="ala-der-membrana" d="M255,290 Q310,235 340,195 Q320,185 300,205 Q285,185 272,210 Q258,190 248,220 Q242,200 238,230 L255,290Z" fill="white" stroke="#111" stroke-width="2"/>
  <!-- Front legs -->
  <path class="region" data-name="pata-izq" d="M148,360 Q125,370 118,395 Q128,405 140,395 L152,378Z" fill="white" stroke="#111" stroke-width="2"/>
  <path class="region" data-name="garra-izq-1" d="M118,395 L105,410 L120,408Z" fill="white" stroke="#111" stroke-width="1.8"/>
  <path class="region" data-name="garra-izq-2" d="M128,402 L118,418 L132,414Z" fill="white" stroke="#111" stroke-width="1.8"/>
  <path class="region" data-name="garra-izq-3" d="M140,406 L133,422 L146,418Z" fill="white" stroke="#111" stroke-width="1.8"/>
  <path class="region" data-name="pata-der" d="M252,358 Q275,368 282,393 Q272,403 260,393 L248,376Z" fill="white" stroke="#111" stroke-width="2"/>
  <path class="region" data-name="garra-der-1" d="M258,406 L254,422 L266,418Z" fill="white" stroke="#111" stroke-width="1.8"/>
  <path class="region" data-name="garra-der-2" d="M272,402 L272,418 L284,414Z" fill="white" stroke="#111" stroke-width="1.8"/>
  <path class="region" data-name="garra-der-3" d="M282,395 L285,410 L296,405Z" fill="white" stroke="#111" stroke-width="1.8"/>
  <!-- Tail -->
  <path class="region" data-name="cola-1" d="M150,380 Q110,390 95,420 Q108,428 122,415 Q128,432 145,420Z" fill="white" stroke="#111" stroke-width="2"/>
  <path class="region" data-name="cola-punta" d="M95,420 L72,440 L100,445 L108,428Z" fill="white" stroke="#111" stroke-width="2"/>
  <!-- Title -->
  <text x="200" y="492" text-anchor="middle" font-family="Arial" font-size="14" font-weight="bold" fill="#111">🐉 Dragón 🐉</text>
</svg>
