<svg xmlns="http://www.w3.org/2000/svg" viewBox="0 0 400 500" width="400" height="500">
  <rect width="400" height="500" fill="white"/>
  <!-- Sky -->
  <rect class="region" data-name="cielo" x="0" y="0" width="400" height="280" fill="white" stroke="#111" stroke-width="1.5"/>
  <!-- Clouds -->
  <path class="region" data-name="nube1" d="M40,60 Q50,45 65,50 Q70,35 85,42 Q95,30 108,42 Q118,38 120,55 Q130,58 125,70 Q40,75 35,65 Q32,62 40,60Z" fill="white" stroke="#111" stroke-width="2"/>
  <path class="region" data-name="nube2" d="M270,40 Q282,25 298,32 Q305,18 322,25 Q332,15 348,27 Q360,22 362,42 Q372,45 368,58 Q270,63 265,52 Q262,48 270,40Z" fill="white" stroke="#111" stroke-width="2"/>
  <!-- Rainbow -->
  <path class="region" data-name="arcoiris-rojo" d="M80,180 Q200,60 320,180 Q315,185 305,180 Q200,75 95,180Z" fill="white" stroke="#111" stroke-width="1.5"/>
  <path class="region" data-name="arcoiris-naranja" d="M95,180 Q200,75 305,180 Q298,185 290,180 Q200,88 110,180Z" fill="white" stroke="#111" stroke-width="1.5"/>
  <path class="region" data-name="arcoiris-amarillo" d="M110,180 Q200,88 290,180 Q282,185 274,180 Q200,100 126,180Z" fill="white" stroke="#111" stroke-width="1.5"/>
  <path class="region" data-name="arcoiris-verde" d="M126,180 Q200,100 274,180 Q266,185 258,180 Q200,112 142,180Z" fill="white" stroke="#111" stroke-width="1.5"/>
  <path class="region" data-name="arcoiris-azul" d="M142,180 Q200,112 258,180 Q250,185 242,180 Q200,124 158,180Z" fill="white" stroke="#111" stroke-width="1.5"/>
  <!-- Ground -->
  <rect class="region" data-name="pasto" x="0" y="380" width="400" height="120" fill="white" stroke="#111" stroke-width="2"/>
  <!-- Body -->
  <ellipse class="region" data-name="cuerpo" cx="200" cy="330" rx="100" ry="65" fill="white" stroke="#111" stroke-width="2.5"/>
  <!-- Neck -->
  <path class="region" data-name="cuello" d="M175,278 Q185,255 210,250 Q225,255 228,278 Q210,270 175,278Z" fill="white" stroke="#111" stroke-width="2.5"/>
  <!-- Head -->
  <ellipse class="region" data-name="cabeza" cx="215" cy="235" rx="45" ry="38" fill="white" stroke="#111" stroke-width="2.5"/>
  <!-- Snout -->
  <ellipse class="region" data-name="hocico" cx="248" cy="248" rx="22" ry="16" fill="white" stroke="#111" stroke-width="2"/>
  <!-- Nostril -->
  <ellipse cx="244" cy="252" rx="4" ry="3" fill="#ddd" stroke="#111" stroke-width="1.5"/>
  <ellipse cx="254" cy="252" rx="4" ry="3" fill="#ddd" stroke="#111" stroke-width="1.5"/>
  <!-- Eye -->
  <ellipse class="region" data-name="ojo" cx="222" cy="228" rx="12" ry="13" fill="white" stroke="#111" stroke-width="2"/>
  <ellipse cx="222" cy="229" rx="7" ry="8" fill="#111" stroke="none"/>
  <ellipse cx="219" cy="226" rx="2.5" ry="2.5" fill="white" stroke="none"/>
  <!-- Eyelashes -->
  <line x1="215" y1="216" x2="213" y2="210" stroke="#111" stroke-width="1.5"/>
  <line x1="221" y1="215" x2="220" y2="208" stroke="#111" stroke-width="1.5"/>
  <line x1="227" y1="216" x2="228" y2="209" stroke="#111" stroke-width="1.5"/>
  <!-- Horn -->
  <path class="region" data-name="cuerno" d="M210,196 L202,155 L220,196Z" fill="white" stroke="#111" stroke-width="2"/>
  <line x1="205" y1="188" x2="218" y2="185" stroke="#111" stroke-width="1"/>
  <line x1="204" y1="178" x2="216" y2="174" stroke="#111" stroke-width="1"/>
  <line x1="204" y1="168" x2="213" y2="164" stroke="#111" stroke-width="1"/>
  <!-- Mane -->
  <path class="region" data-name="crin-1" d="M185,200 Q165,215 168,240 Q175,235 180,225 Q182,215 185,200Z" fill="white" stroke="#111" stroke-width="2"/>
  <path class="region" data-name="crin-2" d="M180,205 Q155,225 160,252 Q168,246 172,235 Q175,222 180,205Z" fill="white" stroke="#111" stroke-width="2"/>
  <path class="region" data-name="crin-3" d="M176,215 Q148,238 155,268 Q163,260 167,248 Q170,234 176,215Z" fill="white" stroke="#111" stroke-width="2"/>
  <!-- Ear -->
  <path class="region" data-name="oreja" d="M195,200 L188,180 L205,188Z" fill="white" stroke="#111" stroke-width="2"/>
  <!-- Legs -->
  <rect class="region" data-name="pata-ant-izq" x="130" y="375" width="28" height="65" rx="8" fill="white" stroke="#111" stroke-width="2"/>
  <rect class="region" data-name="pata-ant-der" x="168" y="375" width="28" height="65" rx="8" fill="white" stroke="#111" stroke-width="2"/>
  <rect class="region" data-name="pata-tras-izq" x="218" y="375" width="28" height="65" rx="8" fill="white" stroke="#111" stroke-width="2"/>
  <rect class="region" data-name="pata-tras-der" x="256" y="375" width="28" height="65" rx="8" fill="white" stroke="#111" stroke-width="2"/>
  <!-- Hooves -->
  <ellipse class="region" data-name="casco1" cx="144" cy="442" rx="16" ry="8" fill="white" stroke="#111" stroke-width="2"/>
  <ellipse class="region" data-name="casco2" cx="182" cy="442" rx="16" ry="8" fill="white" stroke="#111" stroke-width="2"/>
  <ellipse class="region" data-name="casco3" cx="232" cy="442" rx="16" ry="8" fill="white" stroke="#111" stroke-width="2"/>
  <ellipse class="region" data-name="casco4" cx="270" cy="442" rx="16" ry="8" fill="white" stroke="#111" stroke-width="2"/>
  <!-- Tail -->
  <path class="region" data-name="cola-1" d="M300,310 Q340,295 345,330 Q330,340 300,330Z" fill="white" stroke="#111" stroke-width="2"/>
  <path class="region" data-name="cola-2" d="M302,325 Q348,318 350,360 Q335,365 305,345Z" fill="white" stroke="#111" stroke-width="2"/>
  <path class="region" data-name="cola-3" d="M303,342 Q345,345 340,385 Q325,388 308,362Z" fill="white" stroke="#111" stroke-width="2"/>
  <!-- Stars around -->
  <polygon class="region" data-name="estrella-mag1" points="50,310 53,320 63,320 55,326 58,336 50,330 42,336 45,326 37,320 47,320" fill="white" stroke="#111" stroke-width="1.5"/>
  <polygon class="region" data-name="estrella-mag2" points="355,300 358,310 368,310 360,316 363,326 355,320 347,326 350,316 342,310 352,310" fill="white" stroke="#111" stroke-width="1.5"/>
  <!-- Title -->
  <text x="200" y="492" text-anchor="middle" font-family="Arial" font-size="14" font-weight="bold" fill="#111">🦄 Unicornio 🦄</text>
</svg>
