<svg xmlns="http://www.w3.org/2000/svg" viewBox="0 0 400 500" width="400" height="500">
  <rect width="400" height="500" fill="white"/>
  <!-- Sky layers -->
  <rect class="region" data-name="cielo-alto" x="0" y="0" width="400" height="140" fill="white" stroke="#111" stroke-width="1.5"/>
  <rect class="region" data-name="cielo-bajo" x="0" y="140" width="400" height="100" fill="white" stroke="#111" stroke-width="1.5"/>
  <!-- Sun -->
  <circle class="region" data-name="sol" cx="65" cy="65" r="40" fill="white" stroke="#111" stroke-width="2.5"/>
  <!-- Sun rays -->
  <line x1="65" y1="14" x2="65" y2="2" stroke="#111" stroke-width="2"/>
  <line x1="65" y1="116" x2="65" y2="128" stroke="#111" stroke-width="2"/>
  <line x1="14" y1="65" x2="2" y2="65" stroke="#111" stroke-width="2"/>
  <line x1="36" y1="36" x2="27" y2="27" stroke="#111" stroke-width="2"/>
  <line x1="94" y1="36" x2="103" y2="27" stroke="#111" stroke-width="2"/>
  <!-- Clouds -->
  <path class="region" data-name="nube1" d="M185,50 Q198,35 215,42 Q222,25 240,32 Q250,20 265,32 Q278,26 280,46 Q292,49 288,63 Q183,68 179,57Z" fill="white" stroke="#111" stroke-width="2"/>
  <path class="region" data-name="nube2" d="M290,80 Q300,68 312,73 Q317,60 330,66 Q337,56 348,66 Q356,62 358,75 Q366,78 363,88 Q288,92 285,83Z" fill="white" stroke="#111" stroke-width="2"/>
  <!-- Birds -->
  <path d="M130,100 Q138,95 145,100" fill="none" stroke="#111" stroke-width="1.8"/>
  <path d="M155,88 Q163,83 170,88" fill="none" stroke="#111" stroke-width="1.8"/>
  <path d="M175,105 Q183,100 190,105" fill="none" stroke="#111" stroke-width="1.8"/>
  <!-- Mountain far right -->
  <path class="region" data-name="montana-nieve-top" d="M295,130 L355,55 L400,130 Q375,120 355,125 Q335,120 295,130Z" fill="white" stroke="#111" stroke-width="2"/>
  <path class="region" data-name="montana-cuerpo" d="M260,240 L355,55 L400,130 L400,240Z" fill="white" stroke="#111" stroke-width="2"/>
  <!-- Mountain far left -->
  <path class="region" data-name="montana-izq-top" d="M0,130 L55,60 L120,130 Q90,122 55,124 Q20,122 0,130Z" fill="white" stroke="#111" stroke-width="2"/>
  <path class="region" data-name="montana-izq-cuerpo" d="M0,130 L55,60 L130,240 L0,240Z" fill="white" stroke="#111" stroke-width="2"/>
  <!-- Rolling hills -->
  <path class="region" data-name="colina-izq" d="M0,240 Q80,170 180,240Z" fill="white" stroke="#111" stroke-width="2"/>
  <path class="region" data-name="colina-der" d="M180,240 Q280,165 400,240Z" fill="white" stroke="#111" stroke-width="2"/>
  <!-- River -->
  <path class="region" data-name="rio" d="M155,240 Q170,280 160,320 Q170,360 155,400 Q175,405 185,400 Q175,360 185,320 Q175,280 185,240Z" fill="white" stroke="#111" stroke-width="2"/>
  <!-- River ripples -->
  <path d="M160,270 Q172,265 175,275" fill="none" stroke="#111" stroke-width="1.2"/>
  <path d="M158,300 Q170,295 174,305" fill="none" stroke="#111" stroke-width="1.2"/>
  <path d="M160,330 Q172,325 175,335" fill="none" stroke="#111" stroke-width="1.2"/>
  <!-- Meadow sections -->
  <rect class="region" data-name="pradera-izq" x="0" y="310" width="155" height="90" fill="white" stroke="#111" stroke-width="2"/>
  <rect class="region" data-name="pradera-der" x="185" y="310" width="215" height="90" fill="white" stroke="#111" stroke-width="2"/>
  <!-- Ground -->
  <rect class="region" data-name="suelo" x="0" y="400" width="400" height="100" fill="white" stroke="#111" stroke-width="2"/>
  <!-- Left trees -->
  <rect class="region" data-name="arbol1-tronco" x="47" y="310" width="16" height="50" fill="white" stroke="#111" stroke-width="1.8"/>
  <ellipse class="region" data-name="arbol1-copa" cx="55" cy="295" rx="30" ry="28" fill="white" stroke="#111" stroke-width="2"/>
  <rect class="region" data-name="arbol2-tronco" x="90" y="320" width="14" height="40" fill="white" stroke="#111" stroke-width="1.8"/>
  <ellipse class="region" data-name="arbol2-copa" cx="97" cy="307" rx="25" ry="23" fill="white" stroke="#111" stroke-width="2"/>
  <!-- Right trees -->
  <rect class="region" data-name="arbol3-tronco" x="288" y="312" width="16" height="48" fill="white" stroke="#111" stroke-width="1.8"/>
  <ellipse class="region" data-name="arbol3-copa" cx="296" cy="297" rx="30" ry="28" fill="white" stroke="#111" stroke-width="2"/>
  <rect class="region" data-name="arbol4-tronco" x="340" y="320" width="14" height="40" fill="white" stroke="#111" stroke-width="1.8"/>
  <ellipse class="region" data-name="arbol4-copa" cx="347" cy="307" rx="25" ry="23" fill="white" stroke="#111" stroke-width="2"/>
  <!-- Flowers meadow -->
  <circle cx="30" cy="395" r="5" fill="white" stroke="#111" stroke-width="1.5"/>
  <line x1="30" y1="390" x2="30" y2="402" stroke="#111" stroke-width="1.2"/>
  <circle cx="55" cy="390" r="5" fill="white" stroke="#111" stroke-width="1.5"/>
  <line x1="55" y1="385" x2="55" y2="400" stroke="#111" stroke-width="1.2"/>
  <circle cx="210" cy="392" r="5" fill="white" stroke="#111" stroke-width="1.5"/>
  <line x1="210" y1="387" x2="210" y2="400" stroke="#111" stroke-width="1.2"/>
  <circle cx="250" cy="395" r="5" fill="white" stroke="#111" stroke-width="1.5"/>
  <line x1="250" y1="390" x2="250" y2="402" stroke="#111" stroke-width="1.2"/>
  <circle cx="360" cy="392" r="5" fill="white" stroke="#111" stroke-width="1.5"/>
  <line x1="360" y1="387" x2="360" y2="400" stroke="#111" stroke-width="1.2"/>
  <!-- Hot air balloon -->
  <ellipse class="region" data-name="globo-superior" cx="200" cy="120" rx="45" ry="55" fill="white" stroke="#111" stroke-width="2.5"/>
  <path d="M155,120 L200,60 L245,120" fill="none" stroke="#111" stroke-width="1.5"/>
  <path d="M155,120 Q200,180 245,120" fill="none" stroke="#111" stroke-width="1.5"/>
  <line x1="200" y1="65" x2="200" y2="175" stroke="#111" stroke-width="1.5"/>
  <!-- Balloon basket -->
  <rect class="region" data-name="globo-canasta" x="183" y="173" width="34" height="22" rx="4" fill="white" stroke="#111" stroke-width="2"/>
  <line x1="183" y1="173" x2="175" y2="175" stroke="#111" stroke-width="1.5"/>
  <line x1="217" y1="173" x2="225" y2="175" stroke="#111" stroke-width="1.5"/>
  <!-- Title -->
  <text x="200" y="492" text-anchor="middle" font-family="Arial" font-size="14" font-weight="bold" fill="#111">🏔 Paisaje 🌅</text>
</svg>
